<mxfile host="app.diagrams.net" agent="Mozilla/5.0 (Windows NT 10.0; Win64; x64) AppleWebKit/537.36 (KHTML, like Gecko) Chrome/141.0.0.0 Safari/537.36" version="28.2.5">
  <diagram name="Página-1" id="scHOOIvU4PAWGcensdTP">
    <mxGraphModel dx="1884" dy="777" grid="1" gridSize="10" guides="1" tooltips="1" connect="1" arrows="1" fold="1" page="1" pageScale="1" pageWidth="1169" pageHeight="827" math="0" shadow="0">
      <root>
        <mxCell id="0" />
        <mxCell id="1" parent="0" />
        <mxCell id="1JGxEbP4h0APIhi-sRCQ-1" style="edgeStyle=orthogonalEdgeStyle;rounded=0;orthogonalLoop=1;jettySize=auto;html=1;" edge="1" parent="1" source="1JGxEbP4h0APIhi-sRCQ-2" target="1JGxEbP4h0APIhi-sRCQ-4">
          <mxGeometry relative="1" as="geometry" />
        </mxCell>
        <mxCell id="1JGxEbP4h0APIhi-sRCQ-2" value="Inicio" style="ellipse;whiteSpace=wrap;html=1;fillColor=#dae8fc;strokeColor=#6c8ebf;strokeWidth=3;shadow=1;sketch=1;curveFitting=1;jiggle=2;perimeterSpacing=2;fontSize=12;textShadow=0;labelBorderColor=none;labelBackgroundColor=default;fontColor=#000000;" vertex="1" parent="1">
          <mxGeometry x="234" y="20" width="120" height="80" as="geometry" />
        </mxCell>
        <mxCell id="1JGxEbP4h0APIhi-sRCQ-3" style="edgeStyle=orthogonalEdgeStyle;rounded=0;orthogonalLoop=1;jettySize=auto;html=1;entryX=0.5;entryY=0;entryDx=0;entryDy=0;" edge="1" parent="1" source="1JGxEbP4h0APIhi-sRCQ-4">
          <mxGeometry relative="1" as="geometry">
            <mxPoint x="294" y="230" as="targetPoint" />
          </mxGeometry>
        </mxCell>
        <mxCell id="1JGxEbP4h0APIhi-sRCQ-4" value="LER NotaAluno" style="shape=parallelogram;perimeter=parallelogramPerimeter;whiteSpace=wrap;html=1;fixedSize=1;fillColor=#e1d5e7;strokeColor=#9673a6;strokeWidth=3;shadow=1;sketch=1;curveFitting=1;jiggle=2;perimeterSpacing=2;fontSize=12;textShadow=0;labelBorderColor=none;labelBackgroundColor=default;fontColor=#000000;" vertex="1" parent="1">
          <mxGeometry x="234" y="130" width="120" height="60" as="geometry" />
        </mxCell>
        <mxCell id="1JGxEbP4h0APIhi-sRCQ-5" style="edgeStyle=orthogonalEdgeStyle;rounded=0;orthogonalLoop=1;jettySize=auto;html=1;exitX=0.5;exitY=1;exitDx=0;exitDy=0;entryX=0;entryY=0.5;entryDx=0;entryDy=0;" edge="1" parent="1" source="1JGxEbP4h0APIhi-sRCQ-6" target="1JGxEbP4h0APIhi-sRCQ-7">
          <mxGeometry relative="1" as="geometry">
            <Array as="points">
              <mxPoint x="90" y="590" />
            </Array>
          </mxGeometry>
        </mxCell>
        <mxCell id="1JGxEbP4h0APIhi-sRCQ-6" value="Escrever &quot;&lt;font face=&quot;Times New Roman&quot;&gt;Reprovado&quot;&lt;/font&gt;" style="shape=parallelogram;perimeter=parallelogramPerimeter;whiteSpace=wrap;html=1;fixedSize=1;fillColor=#e1d5e7;strokeColor=#9673a6;strokeWidth=3;shadow=1;sketch=1;curveFitting=1;jiggle=2;perimeterSpacing=2;fontSize=12;textShadow=0;labelBorderColor=none;labelBackgroundColor=default;fontColor=#000000;" vertex="1" parent="1">
          <mxGeometry x="20" y="370" width="140" height="60" as="geometry" />
        </mxCell>
        <mxCell id="1JGxEbP4h0APIhi-sRCQ-7" value="Fim" style="ellipse;whiteSpace=wrap;html=1;fillColor=#f8cecc;strokeColor=#b85450;strokeWidth=3;shadow=1;sketch=1;curveFitting=1;jiggle=2;perimeterSpacing=2;fontSize=12;textShadow=0;labelBorderColor=none;labelBackgroundColor=default;fontColor=#000000;" vertex="1" parent="1">
          <mxGeometry x="234" y="550" width="120" height="80" as="geometry" />
        </mxCell>
        <mxCell id="1JGxEbP4h0APIhi-sRCQ-8" style="edgeStyle=orthogonalEdgeStyle;rounded=0;orthogonalLoop=1;jettySize=auto;html=1;entryX=0.5;entryY=0;entryDx=0;entryDy=0;" edge="1" parent="1" source="1JGxEbP4h0APIhi-sRCQ-12" target="1JGxEbP4h0APIhi-sRCQ-6">
          <mxGeometry relative="1" as="geometry">
            <Array as="points">
              <mxPoint x="90" y="325" />
            </Array>
          </mxGeometry>
        </mxCell>
        <mxCell id="1JGxEbP4h0APIhi-sRCQ-9" value="NÃO" style="edgeLabel;html=1;align=center;verticalAlign=middle;resizable=0;points=[];" vertex="1" connectable="0" parent="1JGxEbP4h0APIhi-sRCQ-8">
          <mxGeometry x="-0.2517" y="4" relative="1" as="geometry">
            <mxPoint as="offset" />
          </mxGeometry>
        </mxCell>
        <mxCell id="1JGxEbP4h0APIhi-sRCQ-10" style="edgeStyle=orthogonalEdgeStyle;rounded=0;orthogonalLoop=1;jettySize=auto;html=1;entryX=0.5;entryY=0;entryDx=0;entryDy=0;" edge="1" parent="1" source="1JGxEbP4h0APIhi-sRCQ-12" target="1JGxEbP4h0APIhi-sRCQ-14">
          <mxGeometry relative="1" as="geometry">
            <Array as="points">
              <mxPoint x="500" y="325" />
            </Array>
          </mxGeometry>
        </mxCell>
        <mxCell id="1JGxEbP4h0APIhi-sRCQ-11" value="SIM" style="edgeLabel;html=1;align=center;verticalAlign=middle;resizable=0;points=[];" vertex="1" connectable="0" parent="1JGxEbP4h0APIhi-sRCQ-10">
          <mxGeometry x="-0.3691" y="-4" relative="1" as="geometry">
            <mxPoint as="offset" />
          </mxGeometry>
        </mxCell>
        <mxCell id="1JGxEbP4h0APIhi-sRCQ-12" value="NotaAluno9.5" style="rhombus;whiteSpace=wrap;html=1;fillColor=#d80073;fontColor=#000000;strokeColor=#A50040;strokeWidth=3;sketch=1;curveFitting=1;jiggle=2;perimeterSpacing=2;fontSize=12;textShadow=0;labelBorderColor=none;labelBackgroundColor=default;" vertex="1" parent="1">
          <mxGeometry x="192" y="230" width="204" height="190" as="geometry" />
        </mxCell>
        <mxCell id="1JGxEbP4h0APIhi-sRCQ-13" style="edgeStyle=orthogonalEdgeStyle;rounded=0;orthogonalLoop=1;jettySize=auto;html=1;entryX=1;entryY=0.5;entryDx=0;entryDy=0;" edge="1" parent="1" source="1JGxEbP4h0APIhi-sRCQ-14" target="1JGxEbP4h0APIhi-sRCQ-7">
          <mxGeometry relative="1" as="geometry">
            <Array as="points">
              <mxPoint x="500" y="590" />
            </Array>
          </mxGeometry>
        </mxCell>
        <mxCell id="1JGxEbP4h0APIhi-sRCQ-14" value="Escrever &quot;&lt;font face=&quot;Times New Roman&quot;&gt;Aprovado&quot;&lt;/font&gt;" style="shape=parallelogram;perimeter=parallelogramPerimeter;whiteSpace=wrap;html=1;fixedSize=1;fillColor=#e1d5e7;strokeColor=#9673a6;strokeWidth=3;shadow=1;sketch=1;curveFitting=1;jiggle=2;perimeterSpacing=2;fontSize=12;textShadow=0;labelBorderColor=none;labelBackgroundColor=default;fontColor=#000000;" vertex="1" parent="1">
          <mxGeometry x="430" y="370" width="140" height="60" as="geometry" />
        </mxCell>
        <mxCell id="1JGxEbP4h0APIhi-sRCQ-15" value="3º Fluxograma" style="text;html=1;align=center;verticalAlign=middle;resizable=0;points=[];autosize=1;strokeColor=none;fillColor=none;" vertex="1" parent="1">
          <mxGeometry x="396" y="30" width="100" height="30" as="geometry" />
        </mxCell>
      </root>
    </mxGraphModel>
  </diagram>
</mxfile>
